<?xml version="1.0" encoding="UTF-8"?>
<svg xmlns="http://www.w3.org/2000/svg" width="36px" height="36px" viewBox="0 0 36 36" version="1.1">
<g id="surface1">
<path style=" stroke:none;fill-rule:nonzero;fill:rgb(88.627452%,43.921569%,13.333334%);fill-opacity:1;" d="M 22.476562 17.011719 C 23.734375 16.492188 22.59375 15.035156 22.59375 15.035156 C 25.09375 11.535156 25.082031 9.976562 24.59375 8.035156 C 24.09375 6.035156 22.09375 5.035156 22.09375 5.035156 C 22.09375 5.035156 26.59375 6.035156 28.59375 8.535156 C 30.035156 10.335938 29.402344 12.65625 28.933594 13.8125 C 28.785156 14.179688 28.59375 14.527344 28.367188 14.855469 C 27.96875 15.441406 27.425781 16.53125 27.59375 17.035156 C 27.84375 17.785156 29.59375 18.035156 31.59375 15.535156 C 31.59375 15.535156 29.867188 19.265625 28.34375 20.785156 C 26.84375 22.285156 25.59375 23.035156 25.59375 23.035156 C 25.59375 23.035156 26.34375 24.285156 28.34375 23.285156 C 28.34375 23.285156 25.84375 26.285156 23.84375 26.785156 C 23.84375 26.785156 22.84375 27.285156 21.34375 26.785156 C 21.34375 26.785156 20.816406 30.925781 18.816406 31.925781 C 18.816406 31.925781 20.28125 28.195312 18.589844 24.832031 C 18.320312 24.300781 17.835938 24.308594 17.554688 24.835938 C 16.285156 27.203125 17.316406 31.925781 17.316406 31.925781 C 15.316406 30.925781 14.78125 26.695312 14.78125 26.695312 C 13.28125 27.195312 12.28125 26.695312 12.28125 26.695312 C 10.28125 26.195312 7.78125 23.195312 7.78125 23.195312 C 9.78125 24.195312 10.53125 22.945312 10.53125 22.945312 C 10.53125 22.945312 9.28125 22.195312 7.78125 20.695312 C 6.261719 19.171875 4.53125 15.445312 4.53125 15.445312 C 6.53125 17.945312 8.28125 17.695312 8.53125 16.945312 C 8.699219 16.441406 8.15625 15.351562 7.757812 14.765625 C 7.535156 14.433594 7.34375 14.089844 7.195312 13.71875 C 6.726562 12.5625 6.09375 10.242188 7.53125 8.445312 C 9.53125 5.945312 14.03125 4.945312 14.03125 4.945312 C 14.03125 4.945312 12.03125 5.945312 11.53125 7.945312 C 11.046875 9.882812 11.03125 11.445312 13.53125 14.945312 C 13.53125 14.945312 12.160156 17.691406 14.667969 17.925781 C 15.03125 17.960938 15.40625 17.867188 15.675781 17.621094 C 16.046875 17.277344 16.339844 16.582031 15.78125 15.195312 C 14.78125 12.695312 17.28125 11.695312 16.28125 11.195312 C 15.28125 10.695312 14.929688 9.339844 15.28125 9.695312 C 15.78125 10.195312 18.78125 9.695312 19.78125 10.195312 C 20.78125 10.695312 22.175781 13.140625 21.28125 12.695312 C 20.277344 12.191406 19.777344 12.195312 19.273438 12.703125 C 18.59375 13.390625 18.65625 14.566406 19.339844 15.25 L 20.695312 16.605469 C 21.160156 17.070312 21.867188 17.265625 22.476562 17.011719 Z M 22.476562 17.011719 "/>
<path style=" stroke:none;fill-rule:nonzero;fill:rgb(82.352942%,18.431373%,15.294118%);fill-opacity:1;" d="M 20.695312 16.605469 C 20.695312 16.605469 21.5625 17.433594 21.5625 18.933594 C 21.5625 20.433594 20.0625 21.933594 19.0625 22.433594 C 18.0625 22.933594 17.5625 22.933594 18.0625 21.933594 C 18.5625 20.933594 19.5625 20.433594 19.0625 19.433594 C 18.5625 18.433594 15.285156 18.304688 15.675781 17.621094 C 15.925781 17.179688 16.339844 16.582031 15.78125 15.195312 C 14.78125 12.695312 17.28125 11.695312 16.28125 11.195312 C 15.28125 10.695312 14.929688 9.339844 15.28125 9.695312 C 15.78125 10.195312 18.78125 9.695312 19.78125 10.195312 C 20.78125 10.695312 22.175781 13.140625 21.28125 12.695312 C 20.277344 12.191406 19.777344 12.195312 19.273438 12.703125 C 18.59375 13.390625 18.65625 14.566406 19.339844 15.25 L 20.695312 16.605469 "/>
<path style="fill:none;stroke-width:2;stroke-linecap:round;stroke-linejoin:round;stroke:rgb(0%,0%,0%);stroke-opacity:1;stroke-miterlimit:4;" d="M 21.0625 45.890625 C 21.0625 45.890625 18.5625 44.390625 15.5625 41.390625 C 12.773438 38.59375 9.625 32.070312 9.132812 31.03125 " transform="matrix(0.5,0,0,0.5,0,0)"/>
<path style="fill:none;stroke-width:2;stroke-linecap:round;stroke-linejoin:round;stroke:rgb(0%,0%,0%);stroke-opacity:1;stroke-miterlimit:4;" d="M 29.5625 53.390625 C 26.5625 54.390625 24.5625 53.390625 24.5625 53.390625 C 20.5625 52.390625 15.5625 46.390625 15.5625 46.390625 " transform="matrix(0.5,0,0,0.5,0,0)"/>
<path style="fill:none;stroke-width:2;stroke-linecap:round;stroke-linejoin:round;stroke:rgb(0%,0%,0%);stroke-opacity:1;stroke-miterlimit:4;" d="M 37.632812 63.851562 C 37.632812 63.851562 40.5625 56.390625 37.179688 49.664062 C 36.640625 48.601562 35.671875 48.617188 35.109375 49.671875 C 32.570312 54.40625 34.632812 63.84375 34.632812 63.851562 " transform="matrix(0.5,0,0,0.5,0,0)"/>
<path style="fill:none;stroke-width:2;stroke-linecap:round;stroke-linejoin:round;stroke:rgb(0%,0%,0%);stroke-opacity:1;stroke-miterlimit:4;" d="M 56.6875 46.570312 C 56.6875 46.570312 51.6875 52.570312 47.6875 53.570312 C 47.6875 53.570312 45.6875 54.570312 42.6875 53.570312 " transform="matrix(0.5,0,0,0.5,0,0)"/>
<path style="fill:none;stroke-width:2;stroke-linecap:round;stroke-linejoin:round;stroke:rgb(0%,0%,0%);stroke-opacity:1;stroke-miterlimit:4;" d="M 63.1875 31.070312 C 63.1875 31.070312 59.734375 38.53125 56.6875 41.570312 C 53.6875 44.570312 51.1875 46.070312 51.1875 46.070312 " transform="matrix(0.5,0,0,0.5,0,0)"/>
<path style="fill:none;stroke-width:2;stroke-linecap:round;stroke-linejoin:round;stroke:rgb(0%,0%,0%);stroke-opacity:1;stroke-miterlimit:4;" d="M 44.1875 10.070312 C 44.1875 10.070312 53.1875 12.070312 57.1875 17.070312 C 60.070312 20.671875 58.804688 25.3125 57.867188 27.625 C 57.570312 28.359375 57.1875 29.054688 56.734375 29.710938 C 55.9375 30.882812 54.851562 33.0625 55.1875 34.070312 " transform="matrix(0.5,0,0,0.5,0,0)"/>
<path style="fill:none;stroke-width:2;stroke-linecap:round;stroke-linejoin:round;stroke:rgb(0%,0%,0%);stroke-opacity:1;stroke-miterlimit:4;" d="M 32.5625 22.390625 C 30.5625 21.390625 29.859375 18.679688 30.5625 19.390625 C 31.5625 20.390625 37.5625 19.390625 39.5625 20.390625 C 41.5625 21.390625 44.351562 26.28125 42.5625 25.390625 C 40.554688 24.382812 39.554688 24.390625 38.546875 25.40625 C 37.1875 26.78125 37.3125 29.132812 38.679688 30.5 L 42.125 33.867188 " transform="matrix(0.5,0,0,0.5,0,0)"/>
<path style="fill:none;stroke-width:2;stroke-linecap:round;stroke-linejoin:round;stroke:rgb(0%,0%,0%);stroke-opacity:1;stroke-miterlimit:4;" d="M 17.0625 33.890625 C 17.398438 32.882812 16.3125 30.703125 15.515625 29.53125 C 15.070312 28.867188 14.6875 28.179688 14.390625 27.4375 C 13.453125 25.125 12.1875 20.484375 15.0625 16.890625 C 19.0625 11.890625 28.0625 9.890625 28.0625 9.890625 " transform="matrix(0.5,0,0,0.5,0,0)"/>
</g>
</svg>
